<svg id="Capa_1" enable-background="new 0 0 512 512" height="512" viewBox="0 0 512 512" width="512" xmlns="http://www.w3.org/2000/svg"><g><path d="m260.751 159.548c0-12.279 9.989-22.269 22.269-22.269s22.27 9.99 22.27 22.269v85.253h2c0-12.279 9.989-22.269 22.269-22.269s22.269 9.99 22.269 22.269v15.423h2c0-12.279 9.99-22.269 22.27-22.269 3.262 0 6.359.711 9.153 1.976v-206.961c0-18.208-14.761-32.97-32.97-32.97h-253.213c-18.209 0-32.97 14.761-32.97 32.97v227.586c0 18.209 14.761 32.97 32.97 32.97h161.684z" fill="#fed402"/><path d="m108.889 260.556v-227.586c0-18.209 14.761-32.97 32.97-32.97h-42.791c-18.209 0-32.97 14.761-32.97 32.97v227.586c0 18.209 14.761 32.97 32.97 32.97h42.791c-18.209 0-32.97-14.761-32.97-32.97z" fill="#fac600"/><path d="m260.751 159.548c0-12.279 9.989-22.269 22.269-22.269 9.994 0 18.47 6.617 21.28 15.7l7.127-7.127c17.672-17.672 17.672-46.325 0-63.997-17.672-17.672-46.325-17.672-63.997 0l-17.637 17.637c-2.274 2.274-5.962 2.274-8.236 0l-17.637-17.637c-17.672-17.672-46.325-17.672-63.997 0-17.672 17.672-17.672 46.325 0 63.997l81.634 81.634c2.274 2.274 5.962 2.274 8.236 0l30.959-30.959z" fill="#fd4755"/><g><path d="m193.832 145.854c-17.672-17.673-17.672-46.325 0-63.997 1.596-1.596 3.284-3.043 5.043-4.35-17.718-13.173-42.878-11.726-58.954 4.35-17.672 17.672-17.672 46.325 0 63.997l81.634 81.634c2.274 2.274 5.962 2.274 8.236 0l22.837-22.838z" fill="#fb2b3a"/></g><g><path d="m422.633 250.933c-12.851 0-23.269 10.418-23.269 23.269v-13.977c0-12.851-10.418-23.269-23.269-23.269s-23.269 10.418-23.269 23.269v-15.423c0-12.851-10.418-23.269-23.269-23.269s-23.269 10.418-23.269 23.269v-85.253c0-12.851-10.418-23.269-23.269-23.269-12.851 0-23.269 10.418-23.269 23.269l.001 218.714c0 9.742 3.837 19.092 10.679 26.026l23.104 23.412c6.843 6.934 10.679 16.284 10.679 26.026v.609h96.484v-.43c0-9.848 3.92-19.291 10.896-26.243l23.413-23.336c6.975-6.952 10.895-16.395 10.895-26.243v-103.882c.001-12.851-10.417-23.269-23.268-23.269z" fill="#ffbd86"/><path d="m304.205 453.335h32.315v-10.623c0-9.742-3.837-19.092-10.68-26.026l-23.104-23.412c-6.843-6.934-10.68-16.284-10.68-26.026l-.001-218.714c0-3.372.723-6.574 2.014-9.467-3.288-1.778-7.051-2.788-11.051-2.788-12.851 0-23.269 10.418-23.269 23.269l.001 218.714c0 9.742 3.837 19.092 10.679 26.026l23.104 23.412c6.753 6.841 10.57 16.034 10.672 25.635z" fill="#f6a96c"/><path d="m286.494 458.892v47.551c0 3.069 2.488 5.557 5.557 5.557h120.776c3.069 0 5.557-2.488 5.557-5.557v-47.551c0-3.069-2.488-5.557-5.557-5.557h-120.776c-3.069 0-5.557 2.488-5.557 5.557z" fill="#0593fc"/><path d="m324.371 490.826c-3.069 0-5.557-2.488-5.557-5.557v-31.934h-26.763c-3.069 0-5.557 2.488-5.557 5.557v47.551c0 3.069 2.488 5.557 5.557 5.557h120.776c3.069 0 5.557-2.488 5.557-5.557v-15.617z" fill="#0182fc"/></g></g></svg>