<svg id="Capa_1" enable-background="new 0 0 512 512" height="512" viewBox="0 0 512 512" width="512" xmlns="http://www.w3.org/2000/svg"><g><path d="m501.703 211.596-37.651-12.55c-4.756-17.397-11.689-34.101-20.688-49.841l17.773-35.545c2.899-5.797 1.763-12.8-2.821-17.382l-42.592-42.593c-4.584-4.583-11.585-5.718-17.383-2.822l-35.546 17.774c-15.74-9-32.444-15.933-49.84-20.688l-12.55-37.651c-2.051-6.151-7.806-10.298-14.287-10.298h-60.235c-6.482 0-12.236 4.147-14.286 10.297l-12.55 37.651c-17.397 4.756-34.1 11.689-49.84 20.688l-35.547-17.773c-5.798-2.9-12.8-1.763-17.383 2.822l-42.592 42.592c-4.583 4.583-5.719 11.585-2.821 17.382l17.773 35.545c-8.999 15.74-15.933 32.444-20.688 49.841l-37.651 12.55c-6.15 2.051-10.298 7.806-10.298 14.287v60.235c0 6.482 4.148 12.236 10.297 14.287l37.651 12.55c4.756 17.397 11.689 34.101 20.688 49.841l-17.772 35.545c-2.899 5.797-1.763 12.8 2.821 17.382l42.592 42.592c4.584 4.583 11.585 5.718 17.382 2.822l35.546-17.773c15.74 9 32.444 15.933 49.841 20.688l12.55 37.651c2.05 6.15 7.804 10.297 14.286 10.297h60.235c6.482 0 12.236-4.147 14.286-10.297l12.55-37.651c17.397-4.756 34.101-11.689 49.841-20.688l35.546 17.773c5.798 2.9 12.8 1.763 17.382-2.822l42.592-42.592c4.583-4.583 5.719-11.585 2.821-17.382l-17.773-35.545c8.999-15.74 15.933-32.444 20.688-49.841l37.651-12.55c6.149-2.05 10.297-7.805 10.297-14.287v-60.235c.002-6.481-4.146-12.236-10.295-14.286z" fill="#fbf3f3"/><path d="m501.703 300.404c6.149-2.05 10.297-7.805 10.297-14.287v-60.235c0-6.482-4.148-12.236-10.297-14.287l-37.651-12.55c-4.756-17.397-11.689-34.101-20.688-49.841l17.772-35.545c2.899-5.797 1.763-12.8-2.821-17.382l-42.592-42.593c-4.584-4.583-11.585-5.718-17.383-2.822l-35.546 17.774c-15.74-9-32.444-15.933-49.84-20.688l-12.55-37.651c-2.05-6.15-7.805-10.297-14.286-10.297h-30.118v512h30.118c6.482 0 12.236-4.147 14.286-10.297l12.55-37.651c17.397-4.756 34.101-11.688 49.841-20.688l35.546 17.773c5.798 2.9 12.8 1.763 17.382-2.822l42.592-42.592c4.583-4.583 5.719-11.585 2.821-17.382l-17.772-35.545c8.999-15.74 15.933-32.444 20.688-49.841z" fill="#dddcf3"/><circle cx="256" cy="256" fill="#faf16c" r="155"/><path d="m256 101v310c85.467 0 155-69.532 155-155s-69.533-155-155-155z" fill="#f2d231"/><circle cx="256" cy="256" fill="#f2d231" r="125"/><path d="m381 256c0-68.925-56.075-125-125-125v250c68.925 0 125-56.075 125-125z" fill="#ecb455"/><path d="m273.43 244.632c-2.309-.816-4.663-1.665-7.018-2.544v-41.111c4.749 1.462 7.178 3.855 7.462 4.149 4.089 4.633 11.158 5.102 15.824 1.035 4.685-4.082 5.173-11.188 1.091-15.872-4.028-4.623-12.438-10.441-24.377-12.317v-6.972c0-6.213-5.037-11.25-11.25-11.25s-11.25 5.037-11.25 11.25v8.253c-.956.243-1.92.502-2.9.798-14.072 4.238-24.584 16.261-27.433 31.374-2.609 13.843 1.867 27.224 11.681 34.921 4.806 3.77 10.701 7.225 18.651 10.834v52.854c-6.112-.71-10.507-2.573-17.539-7.174-5.198-3.399-12.171-1.942-15.573 3.257-3.401 5.199-1.943 12.172 3.256 15.573 11.668 7.632 19.822 10.18 29.856 10.946v8.364c0 6.213 5.037 11.25 11.25 11.25s11.25-5.037 11.25-11.25v-9.406c20.189-4.811 33.141-21.915 35.978-38.783 3.658-21.756-7.71-40.668-28.959-48.179zm-34.284-15.989c-3.131-2.456-4.488-7.578-3.457-13.051.824-4.37 3.4-9.495 8.222-12.405v28.693c-1.747-1.052-3.353-2.131-4.765-3.237zm41.054 60.437c-1.218 7.243-5.895 14.894-13.789 18.772v-41.824c15.408 5.732 14.459 19.066 13.789 23.052z" fill="#faf16c"/><path d="m273.43 244.632c-2.309-.816-4.663-1.665-7.018-2.544v-41.111c4.749 1.462 7.178 3.855 7.462 4.149 4.089 4.633 11.158 5.102 15.824 1.035 4.685-4.082 5.173-11.188 1.091-15.872-4.028-4.623-12.438-10.441-24.377-12.317v-6.972c0-5.93-4.591-10.777-10.412-11.208v192.415c5.82-.43 10.412-5.278 10.412-11.208v-9.406c20.189-4.811 33.141-21.915 35.978-38.783 3.657-21.755-7.711-40.667-28.96-48.178zm6.77 44.448c-1.218 7.243-5.895 14.894-13.789 18.772v-41.824c15.408 5.732 14.459 19.066 13.789 23.052z" fill="#f2d231"/></g></svg>