<svg height="512" viewBox="0 0 128 128" width="512" xmlns="http://www.w3.org/2000/svg"><g id="Flat"><g id="Man_7" data-name="Man 7"><path d="m83.6569 88.3426h-39.3138a19.6568 19.6568 0 0 0 -19.6569 19.6574c0 4.3422.8763 6.376 7.8628 7.8628 0-.0005 23.521 4.1372 31.451 4.1372s31.451-4.1377 31.451-4.1377c6.9865-1.4868 7.8628-3.5206 7.8628-7.8628a19.6568 19.6568 0 0 0 -19.6569-19.6569z" fill="#b8b8cf"/><path d="m94.3009 84.5408c-3.2648-9.3044-16.4676-12.596-16.4676-12.596h-27.6666s-13.2028 3.2916-16.4676 12.596l8.5232 13.6815 21.7869-2.6368 19.7039 3.4145z" fill="#837d99"/><path d="m74.4236 75.1346h-20.8472c-4.32 2.5069-17.4809 16.4811-17.5342 17.0145l3.4136 6.8509h49.0884l3.4136-6.8509c-.0533-.5334-13.2139-14.5076-17.5342-17.0145z" fill="#9590ab"/><path d="m31.0167 93.1917 2.6824-8.6509s5.0688 6.7316 30.3009 14.4592c-4.5665 7.7028-24.21 6.1211-31.6156-.6668a4.9749 4.9749 0 0 1 -1.3677-5.1415" fill="#a6a4bd"/><path d="m96.9833 93.1917-2.6824-8.6509s-5.0688 6.7316-30.3009 14.4592c4.5665 7.7028 24.21 6.1211 31.6156-.6668a4.9749 4.9749 0 0 0 1.3677-5.1415" fill="#a6a4bd"/><path d="m64 100.1368s-11.7941-5.28-11.7941-11.7941v-7.8627h23.5882v7.8628c0 6.5136-11.7941 11.794-11.7941 11.794z" fill="#ffb8a6"/><path d="m52.2059 88.2924c5.8451 2.6921 15.54 3.707 23.5882 0v-5.4537h-23.5882z" fill="#ffa68f"/><path d="m31.2765 25.3916c1.7235 4.0498 4.6595 11.9061 5.3029 19.7184l27.4206 7.4691 27.4205-7.4691c.055-23.9217 3.4579-34.1322-43.5147-34.75a2.4962 2.4962 0 0 0 -2.3 3.5566 10.724 10.724 0 0 1 .8577 7.5332 67.6044 67.6044 0 0 0 -13.2444.4914 2.5022 2.5022 0 0 0 -1.9426 3.4504z" fill="#f5e5cb"/><path d="m91.4205 45.11c0-2.33-3.4721-13.8835-15.6264-13.8835h-23.5882c-12.2076 0-15.6265 11.5373-15.6265 13.8835-10.6227 0-10.7948 16.1949-.0408 16.559h.0473c.9973 8.1565 5.77 25.4938 27.414 25.4938s26.4169-17.3371 27.4141-25.4935h.0469c10.9007-.3678 10.0468-16.5593-.0404-16.5593z" fill="#ffb8a6"/><circle cx="51.75" cy="50.268" fill="#3a3d3e" r="3.75"/><circle cx="76.252" cy="50.268" fill="#3a3d3e" r="3.75"/><path d="m49.8721 113.5121v-12.7428a1.25 1.25 0 0 1 2.5 0v12.7428z" fill="#fff"/><path d="m53.36 109.1919v4.91a2.2377 2.2377 0 1 1 -4.4753 0v-4.91z" fill="#9590ab"/><path d="m78.1052 113.5121v-12.7428a1.25 1.25 0 0 0 -2.5 0v12.7428z" fill="#fff"/><path d="m74.6176 109.1919v4.91a2.2377 2.2377 0 1 0 4.4753 0v-4.91z" fill="#9590ab"/></g></g></svg>