<svg id="Capa_1" enable-background="new 0 0 512 512" height="512" viewBox="0 0 512 512" width="512" xmlns="http://www.w3.org/2000/svg"><g><g><g><path d="m259.125 308.276c-8.283 0-16.225-3.297-22.072-9.164l-19.627-19.692c-5.847-5.866-13.789-9.164-22.072-9.164h-55.354l5.219 1.063c9.177.644 16.451 8.297 16.451 17.635s-7.274 16.99-16.451 17.635v2.126c9.177.644 16.451 8.297 16.451 17.635 0 9.759-7.939 17.698-17.698 17.698v2c9.759 0 17.698 7.939 17.698 17.698s-7.939 17.698-17.698 17.698v2c9.759 0 17.698 7.939 17.698 17.698 0 5.705-2.725 10.774-6.929 14.013v70.029c0 14.811 12.006 26.817 26.817 26.817 10.783 0 19.524-8.741 19.524-19.523v-36.279c0-13.353 5.572-26.1 15.372-35.17l23.531-21.777c3.188-3.396 7.639-5.323 12.298-5.323h7.906v-85.652h-1.064z" fill="#fed2a4"/><path d="m162.67 288.955c0-10.327-8.371-18.698-18.698-18.698h-55.345c-10.326 0-18.698 8.371-18.698 18.698 0 10.326 8.371 18.698 18.698 18.698h-12.145c-10.326 0-18.698 8.371-18.698 18.698 0 10.326 8.371 18.698 18.698 18.698h-11.04c-10.326 0-18.698 8.371-18.698 18.698 0 10.326 8.371 18.698 18.698 18.698h8.479c-10.326 0-18.698 8.371-18.698 18.698 0 10.326 8.371 18.698 18.698 18.698h70.052c10.326 0 18.698-8.371 18.698-18.698 0-10.326-8.371-18.698-18.698-18.698 10.326 0 18.698-8.371 18.698-18.698 0-10.326-8.371-18.698-18.698-18.698 10.326 0 18.698-8.371 18.698-18.698 0-10.326-8.371-18.698-18.698-18.698 10.326 0 18.697-8.372 18.697-18.698z" fill="#ffbd86"/><g fill="#f6a96c"><path d="m156.751 286.905h-55.345c-10.326 0-18.698 8.371-18.698 18.698 0 .371.034.732.055 1.098-7.451-2.461-12.834-9.47-12.834-17.746 0-10.326 8.371-18.698 18.698-18.698h55.345c9.956 0 18.071 7.788 18.642 17.6-1.845-.61-3.813-.952-5.863-.952z"/><path d="m157.235 361.078h-78.53c-10.326 0-18.698 8.371-18.698 18.698 0 .636.033 1.264.095 1.883-7.723-2.299-13.358-9.444-13.358-17.914 0-10.326 8.371-18.698 18.698-18.698h78.531c9.691 0 17.658 7.373 18.603 16.814-1.694-.503-3.484-.783-5.341-.783z"/><path d="m160.357 399.401h-70.052c-10.326 0-18.698 8.371-18.698 18.698 0 .538.036 1.068.08 1.595-9.272-1.105-16.465-8.983-16.465-18.552 0-10.326 8.371-18.698 18.698-18.698h70.052c9.788 0 17.807 7.525 18.617 17.103-.733-.088-1.475-.146-2.232-.146z"/></g><g><path d="m157.974 323.992h-67.49c-10.326 0-18.698 8.371-18.698 18.698 0 .595.035 1.182.089 1.763-8.094-2.055-14.091-9.369-14.091-18.102 0-10.326 8.371-18.698 18.698-18.698h67.49c9.731 0 17.72 7.436 18.609 16.935-1.476-.375-3.014-.596-4.607-.596z" fill="#f6a96c"/></g></g><path d="m267.592 417.542h53.293c4.658 0 8.434-3.776 8.434-8.434v-120.517c0-4.658-3.776-8.434-8.434-8.434h-53.293c-4.658 0-8.434 3.776-8.434 8.434v120.517c.001 4.659 3.776 8.434 8.434 8.434z" fill="#fd4755"/><path d="m291.949 409.109v-120.518c0-4.658 3.776-8.434 8.434-8.434h-32.79c-4.658 0-8.434 3.776-8.434 8.434v120.517c0 4.658 3.776 8.434 8.434 8.434h32.79c-4.659 0-8.434-3.775-8.434-8.433z" fill="#fb2b3a"/><path d="m329.319 288.591c0-4.658-3.776-8.434-8.434-8.434h-53.293c-4.658 0-8.434 3.776-8.434 8.434v43.232h70.16v-43.232z" fill="#fb2b3a"/><path d="m259.159 288.591v43.232h32.79v-43.232c0-4.658 3.776-8.434 8.434-8.434h-32.79c-4.659.001-8.434 3.776-8.434 8.434z" fill="#e41f2d"/></g><g><g><path d="m350.33 223.045c0-9.338 7.274-16.99 16.451-17.635v-2.126c-9.177-.644-16.451-8.297-16.451-17.635 0-9.759 7.939-17.698 17.698-17.698v-2c-9.759 0-17.698-7.939-17.698-17.698s7.939-17.698 17.698-17.698v-2c-9.759 0-17.698-7.939-17.698-17.698 0-5.705 2.725-10.774 6.929-14.013v-70.027c.001-14.811-12.006-26.817-26.817-26.817-10.783 0-19.524 8.741-19.524 19.523v36.279c0 13.353-5.572 26.1-15.372 35.17l-23.531 21.777c-3.188 3.396-7.639 5.323-12.298 5.323h-7.906v85.652h1.064c8.283 0 16.225 3.297 22.072 9.164l19.627 19.692c5.847 5.866 13.789 9.164 22.072 9.164h53.354l-3.219-1.063c-9.177-.645-16.451-8.298-16.451-17.636z" fill="#fed2a4"/><path d="m446.558 129.556h-8.479c10.326 0 18.698-8.371 18.698-18.698 0-10.326-8.371-18.698-18.698-18.698h-70.052c-10.326 0-18.698 8.371-18.698 18.698 0 10.326 8.371 18.698 18.698 18.698-10.326 0-18.698 8.371-18.698 18.698 0 10.326 8.371 18.698 18.698 18.698-10.326 0-18.698 8.371-18.698 18.698 0 10.326 8.371 18.698 18.698 18.698-10.326 0-18.698 8.371-18.698 18.698 0 10.326 8.371 18.698 18.698 18.698h55.345c10.326 0 18.698-8.371 18.698-18.698 0-10.326-8.371-18.698-18.698-18.698h12.145c10.326 0 18.698-8.371 18.698-18.698 0-10.326-8.371-18.698-18.698-18.698h11.041c10.326 0 18.698-8.371 18.698-18.698 0-10.326-8.371-18.698-18.698-18.698z" fill="#fed2a4"/><g fill="#ffbd86"><path d="m330.442 0c-10.783 0-19.524 8.741-19.524 19.523v36.279c0 13.353-5.572 26.1-15.372 35.17l-23.531 21.777c-3.188 3.396-7.639 5.323-12.298 5.323h-7.877v13.907h27.148c4.658 0 9.109-1.926 12.298-5.323l23.531-21.777c9.8-9.07 15.372-21.817 15.372-35.17v-36.278c0-10.783 8.741-19.523 19.523-19.523 1.511 0 2.991.131 4.434.371-4.499-8.492-13.423-14.279-23.704-14.279z"/><path d="m436.152 225.095h-55.345c-10.326 0-18.698-8.371-18.698-18.698 0-.371.034-.732.055-1.098-7.451 2.461-12.834 9.47-12.834 17.746 0 10.326 8.371 18.698 18.698 18.698h55.345c9.956 0 18.071-7.788 18.642-17.6-1.845.61-3.813.952-5.863.952z"/><path d="m459.821 150.922h-78.531c-10.326 0-18.698-8.371-18.698-18.698 0-.636.033-1.264.095-1.883-7.723 2.299-13.358 9.444-13.358 17.914 0 10.326 8.371 18.698 18.698 18.698h78.531c9.691 0 17.658-7.373 18.603-16.814-1.693.503-3.483.783-5.34.783z"/><path d="m454.464 112.599h-70.052c-10.326 0-18.698-8.371-18.698-18.698 0-.538.036-1.068.08-1.595-9.272 1.105-16.465 8.983-16.465 18.552 0 10.326 8.371 18.698 18.698 18.698h70.052c9.788 0 17.807-7.525 18.617-17.103-.733.088-1.475.146-2.232.146z"/><path d="m449.52 188.008h-67.49c-10.326 0-18.698-8.371-18.698-18.698 0-.595.035-1.182.089-1.763-8.094 2.055-14.091 9.369-14.091 18.102 0 10.326 8.371 18.698 18.698 18.698h67.49c9.731 0 17.72-7.436 18.609-16.935-1.477.375-3.015.596-4.607.596z"/></g></g><path d="m244.408 94.458h-53.293c-4.658 0-8.434 3.776-8.434 8.434v120.517c0 4.658 3.776 8.434 8.434 8.434h53.293c4.658 0 8.434-3.776 8.434-8.434v-120.518c-.001-4.658-3.776-8.433-8.434-8.433z" fill="#0593fc"/><path d="m214.685 223.409v-120.518c0-4.658 3.776-8.434 8.434-8.434h-32.004c-4.658 0-8.434 3.776-8.434 8.434v120.517c0 4.658 3.776 8.434 8.434 8.434h32.004c-4.658 0-8.434-3.775-8.434-8.433z" fill="#0182fc"/><path d="m182.681 223.409c0 4.658 3.776 8.434 8.434 8.434h53.293c4.658 0 8.434-3.776 8.434-8.434v-43.232h-70.16v43.232z" fill="#0182fc"/><path d="m214.685 223.409v-43.232h-32.004v43.232c0 4.658 3.776 8.434 8.434 8.434h32.004c-4.658-.001-8.434-3.776-8.434-8.434z" fill="#0172fb"/></g></g></svg>