<svg height="512" viewBox="0 0 128 128" width="512" xmlns="http://www.w3.org/2000/svg"><g id="Flat"><g id="Woman_12" data-name="Woman 12"><path d="m93.6028 46.4963h.0846s1.9438-15.4655-4.9474-22.3573a9.0593 9.0593 0 0 0 -9.5677-2.3479c-10.3594-19.124-49.8223-15.6534-44.6682 23.3189l.5728 5.8284s-12.0583 32.46-2.1093 42.4086 30.9389-6.1842 30.9389-6.1842 20.99 16.1331 30.939 6.1842-1.2427-46.8507-1.2427-46.8507z" fill="#594a47"/><path d="m83.6569 88.3427h-7.8628l-5 15.2846 5 15.2846c9.29-1.226 19.6569-3.05 19.6569-3.05 6.9864-1.4867 7.8627-3.52 7.8627-7.8627a19.6566 19.6566 0 0 0 -19.6568-19.6565z" fill="#758366"/><path d="m44.3431 88.3427a19.6566 19.6566 0 0 0 -19.6568 19.6573c0 4.3422.8763 6.376 7.8627 7.8627 0 0 10.3673 1.8237 19.6569 3.05l5-16.2751-5-14.2941z" fill="#758366"/><path d="m52.2059 88.3427v30.5692a106.7534 106.7534 0 0 0 11.7941 1.0881 106.7534 106.7534 0 0 0 11.7941-1.0881v-30.5692z" fill="#f7f7f7"/><path d="m52.2059 80v10.8427a11.7941 11.7941 0 0 0 23.5882 0v-10.7827z" fill="#ffb8a6"/><path d="m52.2059 88.2924c5.8451 2.6921 15.54 3.707 23.5882 0v-5.4537h-23.5882z" fill="#ffa68f"/><path d="m86.4273 45.2356c0-2.6077-12.4747-34.5987-43.124-2.9709a9.3647 9.3647 0 0 1 -6.7239 2.8453c-10.6227 0-10.7948 16.1949-.0408 16.559h.0473c.9973 8.1565 5.77 25.4938 27.414 25.4938s26.4169-17.3371 27.4141-25.4935h.0469c10.9007-.3678 10.0468-16.5589-.04-16.5589z" fill="#ffb8a6"/><circle cx="51.75" cy="50.268" fill="#3a3d3e" r="3.75"/><circle cx="76.252" cy="50.268" fill="#3a3d3e" r="3.75"/><g fill="#5f6e50"><path d="m52.2059 88.2924-9.7506 8.15a5 5 0 0 0 -.753 6.8892l4.674 6.0623-.3571.4762a4.9837 4.9837 0 0 0 .72 6.7747 8.52 8.52 0 0 0 5.467 2.2667z"/><path d="m75.7941 88.2924 9.7506 8.15a5 5 0 0 1 .753 6.8892l-4.674 6.0623.3571.4762a4.9837 4.9837 0 0 1 -.72 6.7747 8.52 8.52 0 0 1 -5.467 2.2667z"/></g></g></g></svg>